<?xml version="1.0" encoding="UTF-8" standalone="no"?>
<!DOCTYPE svg PUBLIC "-//W3C//DTD SVG 1.1//EN" "http://www.w3.org/Graphics/SVG/1.1/DTD/svg11.dtd">
<svg width="100%" height="100%" viewBox="0 0 512 512" version="1.1" xmlns="http://www.w3.org/2000/svg" xmlns:xlink="http://www.w3.org/1999/xlink" xml:space="preserve" xmlns:serif="http://www.serif.com/" style="fill-rule:evenodd;clip-rule:evenodd;stroke-linecap:round;stroke-linejoin:round;stroke-miterlimit:1.5;">
    <g transform="matrix(1.11792,0,0,1.23932,-34.1498,-22.5626)">
        <path d="M344.29,43.742C344.29,30.725 332.574,20.157 318.145,20.157L199.5,20.157C185.07,20.157 173.354,30.725 173.354,43.742L173.354,90.91C173.354,103.927 185.07,114.494 199.5,114.494L318.145,114.494C332.574,114.494 344.29,103.927 344.29,90.91L344.29,43.742Z"/>
    </g>
    <g transform="matrix(1.11792,0,0,1.23932,-34.1498,172.562)">
        <path d="M344.29,43.742C344.29,30.725 332.574,20.157 318.145,20.157L199.5,20.157C185.07,20.157 173.354,30.725 173.354,43.742L173.354,90.91C173.354,103.927 185.07,114.494 199.5,114.494L318.145,114.494C332.574,114.494 344.29,103.927 344.29,90.91L344.29,43.742Z" style="fill:rgb(109,73,197);stroke:black;stroke-width:0.85px;"/>
    </g>
    <g transform="matrix(1.11792,0,0,1.23932,-34.1498,368.493)">
        <path d="M344.29,43.742C344.29,30.725 332.574,20.157 318.145,20.157L199.5,20.157C185.07,20.157 173.354,30.725 173.354,43.742L173.354,90.91C173.354,103.927 185.07,114.494 199.5,114.494L318.145,114.494C332.574,114.494 344.29,103.927 344.29,90.91L344.29,43.742Z"/>
    </g>
    <path d="M416.462,261.493C423.467,266.021 430.941,270.007 437.68,274.676C443.199,278.501 444.576,286.087 440.751,291.607C436.927,297.126 429.34,298.502 423.821,294.678C411.866,286.394 397.988,279.795 387.424,269.721C386.221,268.573 379.895,262.583 377.646,259.194C374.542,254.515 374.79,250.147 375.4,247.806C375.992,245.531 377.313,242.867 379.338,240.265C381.362,237.662 384.47,234.894 385.961,233.017C393.049,224.092 400.262,215.277 407.217,206.246C411.314,200.925 418.96,199.932 424.28,204.029C429.6,208.126 430.594,215.772 426.497,221.093C422.33,226.505 418.072,231.839 413.802,237.166C431.519,232.491 448.401,225.207 460.206,210.442C468.723,199.79 471.61,183.697 471.119,166.946C470.342,140.464 460.864,111.895 445.854,97.7C430.74,83.407 408.473,76.648 388.506,72.369C381.94,70.963 377.751,64.489 379.158,57.923C380.565,51.357 387.038,47.169 393.604,48.575C417.745,53.748 444.3,62.739 462.573,80.02C481.362,97.788 494.471,133.084 495.442,166.233C496.116,189.237 490.907,211.01 479.212,225.638C463.287,245.555 440.332,255.407 416.462,261.493Z"/>
    <g transform="matrix(1.11792,0,0,1.23932,-34.1498,172.562)">
        <path d="M344.29,43.742C344.29,30.725 332.574,20.157 318.145,20.157L199.5,20.157C185.07,20.157 173.354,30.725 173.354,43.742L173.354,90.91C173.354,103.927 185.07,114.494 199.5,114.494L318.145,114.494C332.574,114.494 344.29,103.927 344.29,90.91L344.29,43.742Z"/>
    </g>
    <g transform="matrix(-0.99517,-0.0981688,-0.0981688,0.99517,525.193,237.879)">
        <path d="M416.462,261.493C440.332,255.407 463.287,245.555 479.212,225.638C490.907,211.01 496.116,189.237 495.442,166.233C494.471,133.084 481.362,97.788 462.573,80.02C444.3,62.739 417.745,53.748 393.604,48.575C387.038,47.169 380.565,51.357 379.158,57.923C377.751,64.489 381.94,70.963 388.506,72.369C408.473,76.648 430.74,83.407 445.854,97.7C460.864,111.895 470.342,140.464 471.119,166.946C471.61,183.697 468.723,199.79 460.206,210.442C448.401,225.207 431.519,232.491 413.802,237.166C418.072,231.839 422.33,226.505 426.497,221.093C430.594,215.772 429.6,208.126 424.28,204.029C418.96,199.932 411.314,200.925 407.217,206.246C400.262,215.277 393.049,224.092 385.961,233.017C384.47,234.894 381.362,237.662 379.338,240.265C377.313,242.867 375.992,245.531 375.4,247.806C374.79,250.147 374.542,254.515 377.646,259.194C379.895,262.583 386.221,268.573 387.424,269.721C397.988,279.795 411.866,286.394 423.821,294.678C429.34,298.502 436.927,297.126 440.751,291.607C444.576,286.087 443.199,278.501 437.68,274.676C430.941,270.007 423.467,266.021 416.462,261.493Z"/>
    </g>
</svg>
